{"title":"Humandroid (2015).DVDrip.XviD - Italian English.Ac3.5.1.Sub.ita.","uid":12128292,"size":2160367188,"categoryP":"video","categoryS":"movies","magnet":"?xt=urn:btih:deaaeaec11b3ef0cdc35c57897986e6c377f7070&amp;dn=Humandroid+%282015%29.DVDrip.XviD+-+Italian+English.Ac3.5.1.Sub.ita.&amp;tr=udp%3A%2F%2Ftracker.openbittorrent.com%3A80&amp;tr=udp%3A%2F%2Fopen.demonii.com%3A1337&amp;tr=udp%3A%2F%2Ftracker.coppersurfer.tk%3A6969&amp;tr=udp%3A%2F%2Fexodus.desync.com%3A6969","seeders":21,"leechers":10,"uploader":"robbyrs4","files":4,"time":1436979953,"description":"Humandroid (2015).DVDrip.XviD - Italian English.Ac3.5.1.Sub.ita.eng.MIRCrew\n\n[center]\n\n[color=red][b][img]http://s19.postimg.org/w9ws99nmb/banner_mircrew_original_2.png[/img]\n\n[u]NO FOUND ONLY ORIGINAL RELEASE[/u]\n\nHumandroid (2015)\n\n[img]http://i.imgur.com/kQVD0Hs.png[/img]\n\n\n[URL=http://www.imdb.com/title/tt3125324/][IMG]http://www.userlogos.org/files/logos/Sucka/imdb_new.png[/IMG][/URL]  \n\n[img]http://s19.postimg.org/vz5tzn42b/1_scheda.png[/img]\n\nTitolo originale \tBeyond the Lights\nLingua originale \tinglese\nPaese di produzione \tStati Uniti\nAnno \t2014\nDurata \t116 min\nColore \tcolore\nAudio \tsonoro\nGenere \tdrammatico, sentimentale\nRegia \tGina Prince-Bythewood\nSoggetto \tGina Prince-Bythewood\nProduttore \tStephanie Allain, Reggie Rock Bythewood, Ryan Kavanaugh\nCasa di produzione \tUndisputed Cinema, Homegrown Pictures\nFotografia \tTami Reiker\nMontaggio \tTerilyn A. Shropshire\nMusiche \tMark Isham\n\n[img]http://s19.postimg.org/q8fnlww2b/1_cast.png[/img]\n\n\n\n    Gugu Mbatha-Raw: Noni\n    Minnie Driver: Macy Jean\n    Nate Parker: Kaz\n    Danny Glover: Cpt. Nicol\n    Machine Gun Kelly: Kid Culprit\n    Darryl Stephens: Quentin\n    Elaine Tan: April\n    Tyler Christopher: Liam\n    Benito Martinez: Jesse Soria\n    Aisha Hinds: J Stanley\n\n\n   \n[img]http://s19.postimg.org/okgi79i6r/1_trama.png[/img]\n\nLe pressioni del successo stanno portando la cantante Noni sull'orlo del baratro, fino a quando non conosce Kaz, un giovane poliziotto che la aiuta e la incoraggia.........\n\n[img]http://s19.postimg.org/fzn6g380j/1_story.png[/img]\n\nThe pressures of fame have superstar singer Noni on the edge, until she meets Kaz, a young cop who works to help her find the courage to develop her own voice and break free to become the artist she was meant to be.................\n\n[img]http://extraimago.com/images/2015/05/14/vlcsnap-2015-05-14-14h27m08s207.png[/img]\n[img]http://extraimago.com/images/2015/05/14/vlcsnap-2015-05-14-14h27m27s141.png[/img]\n[img]http://extraimago.com/images/2015/05/14/vlcsnap-2015-05-14-14h27m45s62.png[/img]\n\n[IMG]http://img153.imageshack.us/img153/3158/restateinseedblood.gif[/img]\n\n\n[img]http://imgur.com/lvhU6.gif[/img]\n\n\n[img]http://s19.postimg.org/a2jaz9qvn/1_dati.png[/img]\n\n\n[spoiler]\nGeneral\nComplete name                            : Humandroid (2015).ita.eng.sub.ita.eng.MIRCrewHumandroid (2015).ita.eng.sub.ita.eng.MIRCrew.avi\nFormat                                   : AVI\nFormat/Info                              : Audio Video Interleave\nFormat profile                           : OpenDML\nFile size                                : 1.99 GiB\nDuration                                 : 1h 55mn\nOverall bit rate                         : 2 471 Kbps\nWriting application                      : VirtualDubMod 1.5.4.1 (build 2178/release)\nWriting library                          : VirtualDubMod build 2178/release\n\nVideo\nID                                       : 0\nFormat                                   : MPEG-4 Visual\nFormat profile                           : Advanced Simple@L5\nFormat settings, BVOP                    : 1\nFormat settings, QPel                    : No\nFormat settings, GMC                     : No warppoints\nFormat settings, Matrix                  : Custom\nCodec ID                                 : XVID\nCodec ID/Hint                            : XviD\nDuration                                 : 1h 55mn\nBit rate                                 : 1 627 Kbps\nWidth                                    : 720 pixels\nHeight                                   : 304 pixels\nDisplay aspect ratio                     : 2.35:1\nFrame rate                               : 25.000 fps\nColor space                              : YUV\nChroma subsampling                       : 4:2:0\nBit depth                                : 8 bits\nScan type                                : Progressive\nCompression mode                         : Lossy\nBits/(Pixel*Frame)                       : 0.297\nStream size                              : 1.31 GiB (66%)\nWriting library                          : XviD 64\n\nAudio #1\nID                                       : 1\nFormat                                   : AC-3\nFormat/Info                              : Audio Coding 3\nMode extension                           : CM (complete main)\nCodec ID                                 : 2000\nDuration                                 : 1h 55mn\nBit rate mode                            : Constant\nBit rate                                 : 384 Kbps\nChannel(s)                               : 6 channels\nChannel positions                        : Front: L C R, Side: L R, LFE\nSampling rate                            : 48.0 KHz\nBit depth                                : 16 bits\nCompression mode                         : Lossy\nStream size                              : 317 MiB (16%)\nAlignment                                : Split accross interleaves\nInterleave, duration                     : 96 ms (2.40 video frames)\nInterleave, preload duration             : 96 ms\nLanguage                                 : Italian\n\nAudio #2\nID                                       : 2\nFormat                                   : AC-3\nFormat/Info                              : Audio Coding 3\nMode extension                           : CM (complete main)\nCodec ID                                 : 2000\nDuration                                 : 1h 55mn\nBit rate mode                            : Constant\nBit rate                                 : 448 Kbps\nChannel(s)                               : 6 channels\nChannel positions                        : Front: L C R, Side: L R, LFE\nSampling rate                            : 48.0 KHz\nBit depth                                : 16 bits\nCompression mode                         : Lossy\nStream size                              : 370 MiB (18%)\nAlignment                                : Split accross interleaves\nInterleave, duration                     : 96 ms (2.40 video frames)\nInterleave, preload duration             : 96 ms\nLanguage                                 : English\n\n\n\n[/spoiler]\n\n[/color][/b][/center]","torrent":{"xt":"urn:btih:deaaeaec11b3ef0cdc35c57897986e6c377f7070","amp;dn":"Humandroid+%282015%29.DVDrip.XviD+-+Italian+English.Ac3.5.1.Sub.ita.","amp;tr":["udp%3A%2F%2Ftracker.openbittorrent.com%3A80","udp%3A%2F%2Fopen.demonii.com%3A1337","udp%3A%2F%2Ftracker.coppersurfer.tk%3A6969","udp%3A%2F%2Fexodus.desync.com%3A6969"],"infoHash":"deaaeaec11b3ef0cdc35c57897986e6c377f7070","infoHashBuffer":{"type":"Buffer","data":[222,170,234,236,17,179,239,12,220,53,197,120,151,152,110,108,55,127,112,112]},"announce":[],"urlList":[]}}